{
    "asset" : {
        "generator" : "Khronos glTF Blender I/O v1.1.46",
        "version" : "2.0"
    },
    "scene" : 0,
    "scenes" : [
        {
            "extras" : {
                "urho_exportsettings" : {
                    "updatingProperties" : 0,
                    "modelsPath" : "Models",
                    "animationsPath" : "Models",
                    "materialsPath" : "Materials",
                    "techniquesPath" : "Techniques",
                    "texturesPath" : "Textures",
                    "objectsPath" : "Objects",
                    "scenesPath" : "Scenes"
                },
                "glTF2ExportSettings" : {
                    "export_all_influences" : 0,
                    "export_animations" : 1,
                    "export_apply" : 1,
                    "export_cameras" : 0,
                    "export_colors" : 1,
                    "export_copyright" : "",
                    "export_current_frame" : 0,
                    "export_def_bones" : 0,
                    "export_displacement" : 0,
                    "export_draco_generic_quantization" : 12,
                    "export_draco_mesh_compression_enable" : 0,
                    "export_draco_mesh_compression_level" : 6,
                    "export_draco_normal_quantization" : 10,
                    "export_draco_position_quantization" : 14,
                    "export_draco_texcoord_quantization" : 12,
                    "export_extras" : 1,
                    "export_force_sampling" : 1,
                    "export_format" : "GLTF_EMBEDDED",
                    "export_frame_range" : 1,
                    "export_frame_step" : 1,
                    "export_image_format" : "NAME",
                    "export_lights" : 0,
                    "export_materials" : 1,
                    "export_morph" : 1,
                    "export_morph_normal" : 1,
                    "export_morph_tangent" : 0,
                    "export_nla_strips" : 1,
                    "export_normals" : 1,
                    "export_selected" : 0,
                    "export_skins" : 1,
                    "export_tangents" : 0,
                    "export_texcoords" : 1,
                    "export_texture_dir" : "",
                    "export_yup" : 1
                }
            },
            "name" : "Scene",
            "nodes" : [
                0,
                7,
                8
            ]
        }
    ],
    "nodes" : [
        {
            "name" : "Sun",
            "rotation" : [
                0,
                0,
                0.38262245059013367,
                0.9239047765731812
            ],
            "translation" : [
                0.012212250381708145,
                -1.0463026762008667,
                -0.04832334816455841
            ]
        },
        {
            "extras" : {
                "wwww" : "eaeaea",
                "rerer" : 1,
                "t" : [
                    1,
                    0,
                    1
                ]
            },
            "mesh" : 0,
            "name" : "Capsule",
            "translation" : [
                0,
                1.0087717771530151,
                0
            ]
        },
        {
            "extras" : {
                "collider" : "convex"
            },
            "mesh" : 1,
            "name" : "col_main",
            "translation" : [
                0,
                1.003910779953003,
                0
            ]
        },
        {
            "name" : "link_0"
        },
        {
            "name" : "m_attach_bottom",
            "rotation" : [
                0,
                0,
                -1,
                -1.6292068494294654e-07
            ],
            "translation" : [
                0,
                -0.0004046547692269087,
                0
            ]
        },
        {
            "name" : "m_attach_top",
            "translation" : [
                0,
                2.116454601287842,
                0
            ]
        },
        {
            "children" : [
                1,
                2,
                3,
                4,
                5
            ],
            "name" : "p_root"
        },
        {
            "children" : [
                6
            ],
            "name" : "part"
        },
        {
            "name" : "Camera",
            "rotation" : [
                0.483536034822464,
                0.33687159419059753,
                -0.20870360732078552,
                0.7804827094078064
            ],
            "translation" : [
                7.481131553649902,
                5.34366512298584,
                6.5076398849487305
            ]
        }
    ],
    "materials" : [
        {
            "doubleSided" : true,
            "emissiveFactor" : [
                0,
                0,
                0
            ],
            "name" : "Material.001",
            "pbrMetallicRoughness" : {
                "baseColorTexture" : {
                    "index" : 0,
                    "texCoord" : 0
                },
                "metallicFactor" : 0,
                "roughnessFactor" : 0.5
            }
        },
        {
            "doubleSided" : true,
            "name" : "Material",
            "pbrMetallicRoughness" : {}
        }
    ],
    "meshes" : [
        {
            "name" : "Cylinder.002",
            "primitives" : [
                {
                    "attributes" : {
                        "POSITION" : 0,
                        "NORMAL" : 1,
                        "TEXCOORD_0" : 2
                    },
                    "indices" : 3,
                    "material" : 0
                }
            ]
        },
        {
            "name" : "Cylinder.001",
            "primitives" : [
                {
                    "attributes" : {
                        "POSITION" : 4,
                        "NORMAL" : 5
                    },
                    "indices" : 6,
                    "material" : 1
                }
            ]
        }
    ],
    "textures" : [
        {
            "source" : 0
        }
    ],
    "images" : [
        {
            "bufferView" : 4,
            "mimeType" : "image/png",
            "name" : "tex"
        }
    ],
    "accessors" : [
        {
            "bufferView" : 0,
            "componentType" : 5126,
            "count" : 370,
            "max" : [
                1,
                1.10795259475708,
                1
            ],
            "min" : [
                -1,
                -1.0090656280517578,
                -1
            ],
            "type" : "VEC3"
        },
        {
            "bufferView" : 1,
            "componentType" : 5126,
            "count" : 370,
            "type" : "VEC3"
        },
        {
            "bufferView" : 2,
            "componentType" : 5126,
            "count" : 370,
            "type" : "VEC2"
        },
        {
            "bufferView" : 3,
            "componentType" : 5123,
            "count" : 1260,
            "type" : "SCALAR"
        },
        {
            "bufferView" : 5,
            "componentType" : 5126,
            "count" : 160,
            "max" : [
                1,
                1.1140806674957275,
                1
            ],
            "min" : [
                -1,
                -1,
                -1
            ],
            "type" : "VEC3"
        },
        {
            "bufferView" : 6,
            "componentType" : 5126,
            "count" : 160,
            "type" : "VEC3"
        },
        {
            "bufferView" : 7,
            "componentType" : 5123,
            "count" : 276,
            "type" : "SCALAR"
        }
    ],
    "bufferViews" : [
        {
            "buffer" : 0,
            "byteLength" : 4440,
            "byteOffset" : 0
        },
        {
            "buffer" : 0,
            "byteLength" : 4440,
            "byteOffset" : 4440
        },
        {
            "buffer" : 0,
            "byteLength" : 2960,
            "byteOffset" : 8880
        },
        {
            "buffer" : 0,
            "byteLength" : 2520,
            "byteOffset" : 11840
        },
        {
            "buffer" : 0,
            "byteLength" : 193196,
            "byteOffset" : 14360
        },
        {
            "buffer" : 0,
            "byteLength" : 1920,
            "byteOffset" : 207556
        },
        {
            "buffer" : 0,
            "byteLength" : 1920,
            "byteOffset" : 209476
        },
        {
            "buffer" : 0,
            "byteLength" : 552,
            "byteOffset" : 211396
        }
    ],
    "buffers" : [
        {
            "byteLength" : 211948,
            "uri" : "data:application/octet-stream;base64,"
        }
    ]
}
